HIERARCHY
ROOT Hips
{
	OFFSET 0.000000 100.481300 0.000000
	CHANNELS 6 Xposition Yposition Zposition Xrotation Yrotation Zrotation 
	JOINT Spine
	{
		OFFSET -0.279200 12.230698 -2.892100
		CHANNELS 3 Xrotation Yrotation Zrotation
		JOINT Spine1
		{
			OFFSET -0.232667 10.192268 -1.242267
			CHANNELS 3 Xrotation Yrotation Zrotation
			JOINT Spine1_split
			{
				OFFSET -0.232667 10.192268 -1.242267
				CHANNELS 3 Xrotation Yrotation Zrotation
				JOINT Spine2
				{
					OFFSET -0.232667 10.192268 -1.242267
					CHANNELS 3 Xrotation Yrotation Zrotation
					JOINT Neck
					{
						OFFSET -0.418800 17.814194 8.416900
						CHANNELS 3 Xrotation Yrotation Zrotation
						JOINT Head
						{
							OFFSET 0.000000 7.031097 3.806800
							CHANNELS 3 Xrotation Yrotation Zrotation
							JOINT HeadTop_End
							{
								OFFSET 0.000000 24.646606 12.978600
								CHANNELS 3 Xrotation Yrotation Zrotation
								End Site
								{
									OFFSET 0.000000 0.000000 0.000000
								}
							}
						}
					}
					JOINT LeftShoulder
					{
						OFFSET 8.476499 7.247704 -3.868750
						CHANNELS 3 Xrotation Yrotation Zrotation
						JOINT LeftShoulder_split
						{
							OFFSET 8.476499 7.247704 -3.868750
							CHANNELS 3 Xrotation Yrotation Zrotation
							JOINT LeftArm
							{
								OFFSET 9.308998 -2.777710 0.208600
								CHANNELS 3 Xrotation Yrotation Zrotation
								JOINT LeftForeArm
								{
									OFFSET 29.972298 0.000000 0.000000
									CHANNELS 3 Xrotation Yrotation Zrotation
									JOINT LeftHand
									{
										OFFSET 26.026505 0.000000 0.000000
										CHANNELS 3 Xrotation Yrotation Zrotation
										JOINT LeftHandThumb1
										{
											OFFSET 12.240501 -7.147949 9.207150
											CHANNELS 3 Xrotation Yrotation Zrotation
											JOINT LeftHandThumb2
											{
												OFFSET 4.138618 -2.389435 2.389433
												CHANNELS 3 Xrotation Yrotation Zrotation
												JOINT LeftHandThumb3
												{
													OFFSET 2.726913 -1.574387 1.574386
													CHANNELS 3 Xrotation Yrotation Zrotation
													JOINT LeftHandThumb4
													{
														OFFSET 3.941010 -2.275345 2.275342
														CHANNELS 3 Xrotation Yrotation Zrotation
														End Site
														{
															OFFSET 0.000000 0.000000 0.000000
														}
													}
												}
											}
										}
										JOINT LeftHandIndex1
										{
											OFFSET 24.424698 -1.985611 5.953459
											CHANNELS 3 Xrotation Yrotation Zrotation
											JOINT LeftHandIndex2
											{
												OFFSET 6.426697 0.000000 0.000000
												CHANNELS 3 Xrotation Yrotation Zrotation
												JOINT LeftHandIndex3
												{
													OFFSET 5.337898 0.000000 0.000000
													CHANNELS 3 Xrotation Yrotation Zrotation
													JOINT LeftHandIndex4
													{
														OFFSET 4.409401 0.000000 0.000000
														CHANNELS 3 Xrotation Yrotation Zrotation
														End Site
														{
															OFFSET 0.000000 0.000000 0.000000
														}
													}
												}
											}
										}
										JOINT LeftHandMiddle1
										{
											OFFSET 23.810104 0.000000 0.000000
											CHANNELS 3 Xrotation Yrotation Zrotation
											JOINT LeftHandMiddle2
											{
												OFFSET 7.176498 0.000000 0.000000
												CHANNELS 3 Xrotation Yrotation Zrotation
												JOINT LeftHandMiddle3
												{
													OFFSET 6.774902 0.000000 0.000000
													CHANNELS 3 Xrotation Yrotation Zrotation
													JOINT LeftHandMiddle4
													{
														OFFSET 5.403328 0.000000 0.000000
														CHANNELS 3 Xrotation Yrotation Zrotation
														End Site
														{
															OFFSET 0.000000 0.000000 0.000000
														}
													}
												}
											}
										}
										JOINT LeftHandRing1
										{
											OFFSET 22.908401 -0.839279 -6.020567
											CHANNELS 3 Xrotation Yrotation Zrotation
											JOINT LeftHandRing2
											{
												OFFSET 6.337502 0.000000 0.000000
												CHANNELS 3 Xrotation Yrotation Zrotation
												JOINT LeftHandRing3
												{
													OFFSET 5.779297 0.000000 0.000000
													CHANNELS 3 Xrotation Yrotation Zrotation
													JOINT LeftHandRing4
													{
														OFFSET 4.965698 0.000000 0.000000
														CHANNELS 3 Xrotation Yrotation Zrotation
														End Site
														{
															OFFSET 0.000000 0.000000 0.000000
														}
													}
												}
											}
										}
										JOINT LeftHandPinky1
										{
											OFFSET 20.037003 -1.530319 -10.950146
											CHANNELS 3 Xrotation Yrotation Zrotation
											JOINT LeftHandPinky2
											{
												OFFSET 5.254700 0.000000 0.000000
												CHANNELS 3 Xrotation Yrotation Zrotation
												JOINT LeftHandPinky3
												{
													OFFSET 4.810204 0.000000 0.000000
													CHANNELS 3 Xrotation Yrotation Zrotation
													JOINT LeftHandPinky4
													{
														OFFSET 3.647202 0.000000 0.000000
														CHANNELS 3 Xrotation Yrotation Zrotation
														End Site
														{
															OFFSET 0.000000 0.000000 0.000000
														}
													}
												}
											}
										}
									}
								}
							}
						}
					}
					JOINT RightShoulder
					{
						OFFSET -7.570500 7.247704 -3.868750
						CHANNELS 3 Xrotation Yrotation Zrotation
						JOINT RightShoulder_split
						{
							OFFSET -7.570500 7.247704 -3.868750
							CHANNELS 3 Xrotation Yrotation Zrotation
							JOINT RightArm
							{
								OFFSET -9.308998 -2.777710 0.208500
								CHANNELS 3 Xrotation Yrotation Zrotation
								JOINT RightForeArm
								{
									OFFSET -29.972300 0.000000 0.000000
									CHANNELS 3 Xrotation Yrotation Zrotation
									JOINT RightHand
									{
										OFFSET -26.026505 0.000000 0.000000
										CHANNELS 3 Xrotation Yrotation Zrotation
										JOINT RightHandThumb1
										{
											OFFSET -12.240601 -7.148026 9.207092
											CHANNELS 3 Xrotation Yrotation Zrotation
											JOINT RightHandThumb2
											{
												OFFSET -4.138618 -2.389435 2.389433
												CHANNELS 3 Xrotation Yrotation Zrotation
												JOINT RightHandThumb3
												{
													OFFSET -2.726974 -1.574417 1.574421
													CHANNELS 3 Xrotation Yrotation Zrotation
													JOINT RightHandThumb4
													{
														OFFSET -3.941010 -2.275345 2.275343
														CHANNELS 3 Xrotation Yrotation Zrotation
														End Site
														{
															OFFSET 0.000000 0.000000 0.000000
														}
													}
												}
											}
										}
										JOINT RightHandIndex1
										{
											OFFSET -24.424698 -1.985657 5.953444
											CHANNELS 3 Xrotation Yrotation Zrotation
											JOINT RightHandIndex2
											{
												OFFSET -6.426697 0.000000 0.000000
												CHANNELS 3 Xrotation Yrotation Zrotation
												JOINT RightHandIndex3
												{
													OFFSET -5.337898 0.000000 0.000000
													CHANNELS 3 Xrotation Yrotation Zrotation
													JOINT RightHandIndex4
													{
														OFFSET -4.409401 0.000000 0.000000
														CHANNELS 3 Xrotation Yrotation Zrotation
														End Site
														{
															OFFSET 0.000000 0.000000 0.000000
														}
													}
												}
											}
										}
										JOINT RightHandMiddle1
										{
											OFFSET -23.810097 0.000000 0.000000
											CHANNELS 3 Xrotation Yrotation Zrotation
											JOINT RightHandMiddle2
											{
												OFFSET -7.176498 0.000000 0.000000
												CHANNELS 3 Xrotation Yrotation Zrotation
												JOINT RightHandMiddle3
												{
													OFFSET -6.774902 0.000000 0.000000
													CHANNELS 3 Xrotation Yrotation Zrotation
													JOINT RightHandMiddle4
													{
														OFFSET -5.403328 0.000000 0.000000
														CHANNELS 3 Xrotation Yrotation Zrotation
														End Site
														{
															OFFSET 0.000000 0.000000 0.000000
														}
													}
												}
											}
										}
										JOINT RightHandRing1
										{
											OFFSET -22.908302 -0.839325 -6.020576
											CHANNELS 3 Xrotation Yrotation Zrotation
											JOINT RightHandRing2
											{
												OFFSET -6.337502 0.000000 0.000000
												CHANNELS 3 Xrotation Yrotation Zrotation
												JOINT RightHandRing3
												{
													OFFSET -5.779297 0.000000 0.000000
													CHANNELS 3 Xrotation Yrotation Zrotation
													JOINT RightHandRing4
													{
														OFFSET -4.965698 0.000000 0.000000
														CHANNELS 3 Xrotation Yrotation Zrotation
														End Site
														{
															OFFSET 0.000000 0.000000 0.000000
														}
													}
												}
											}
										}
										JOINT RightHandPinky1
										{
											OFFSET -20.037003 -1.530334 -10.950259
											CHANNELS 3 Xrotation Yrotation Zrotation
											JOINT RightHandPinky2
											{
												OFFSET -5.254700 0.000000 0.000000
												CHANNELS 3 Xrotation Yrotation Zrotation
												JOINT RightHandPinky3
												{
													OFFSET -4.810204 0.000000 0.000000
													CHANNELS 3 Xrotation Yrotation Zrotation
													JOINT RightHandPinky4
													{
														OFFSET -3.647202 0.000000 0.000000
														CHANNELS 3 Xrotation Yrotation Zrotation
														End Site
														{
															OFFSET 0.000000 0.000000 0.000000
														}
													}
												}
											}
										}
									}
								}
							}
						}
					}
				}
			}
		}
	}
	JOINT LeftUpLeg
	{
		OFFSET 15.427100 -6.655098 0.678600
		CHANNELS 3 Xrotation Yrotation Zrotation
		JOINT LeftLeg
		{
			OFFSET 4.081073 -39.591068 13.024000
			CHANNELS 3 Xrotation Yrotation Zrotation
			JOINT LeftFoot
			{
				OFFSET -4.081074 -37.707932 -15.979700
				CHANNELS 3 Xrotation Yrotation Zrotation
				JOINT LeftToeBase
				{
					OFFSET 5.346399 -15.068900 20.645000
					CHANNELS 3 Xrotation Yrotation Zrotation
					JOINT LeftToe_End
					{
						OFFSET 2.754700 0.931300 11.300900
						CHANNELS 3 Xrotation Yrotation Zrotation
						End Site
						{
							OFFSET 0.000000 0.000000 0.000000
						}
					}
				}
			}
		}
	}
	JOINT RightUpLeg
	{
		OFFSET -15.569500 -6.655098 0.678600
		CHANNELS 3 Xrotation Yrotation Zrotation
		JOINT RightLeg
		{
			OFFSET -4.081825 -39.591045 13.023800
			CHANNELS 3 Xrotation Yrotation Zrotation
			JOINT RightFoot
			{
				OFFSET 4.081824 -37.707954 -15.979600
				CHANNELS 3 Xrotation Yrotation Zrotation
				JOINT RightToeBase
				{
					OFFSET -5.346400 -15.068900 20.645000
					CHANNELS 3 Xrotation Yrotation Zrotation
					JOINT RightToe_End
					{
						OFFSET -2.754700 0.931300 11.300900
						CHANNELS 3 Xrotation Yrotation Zrotation
						End Site
						{
							OFFSET 0.000000 0.000000 0.000000
						}
					}
				}
			}
		}
	}
}
MOTION
Frames: 5
Frame Time: 0.016667
0.462949 122.741837 15.068957 3.630845 -35.803035 3.904795 31.640107 -6.330014 -10.046129 14.129385 0.964743 -3.082684 0.000000 0.000000 0.000000 14.083550 0.916931 -3.297929 -8.677485 21.443463 -12.816590 -25.381084 13.620604 5.249198 -0.000001 -0.000000 -0.000000 11.474082 -16.374151 4.408444 0.000000 0.000000 0.000000 -62.668823 -4.844732 -3.758207 45.767660 -24.019438 29.511130 -12.970306 31.805910 18.858157 40.109938 -15.297132 -0.360421 5.639824 28.097616 11.338675 1.088600 40.896748 22.734020 -0.000000 0.000000 -0.000000 6.882243 2.840060 -61.140404 8.247933 7.639986 -89.897946 2.146325 8.173657 -41.827764 0.000003 0.000001 -0.000001 -2.345507 4.688851 -62.655320 8.754111 9.897109 -87.051109 1.995381 4.929277 -37.483310 -0.000003 -0.000000 -0.000000 -9.042530 10.045664 -60.766328 8.524072 9.508813 -66.893076 6.576501 9.896711 -70.384983 -0.000002 0.000002 0.000002 -17.946952 14.754942 -51.485809 8.868412 8.667047 -84.811968 4.540350 8.852508 -59.153017 0.000001 0.000002 -0.000002 18.189221 24.092157 -9.603798 0.000000 0.000000 0.000000 -33.453140 6.374207 2.980962 -41.939219 39.311133 29.275895 -2.634146 7.017184 -19.613218 -1.525699 -5.490527 13.054244 1.517233 -22.702490 -8.022594 -6.615004 18.786676 8.531378 0.000001 -0.000002 0.000003 1.275684 4.855660 -8.441565 0.521787 0.316507 6.397938 1.551106 -1.256939 -15.009515 -0.000001 -0.000000 -0.000000 0.863997 -5.171146 -11.645877 1.544692 -3.773590 21.274079 1.518840 3.372985 -14.229390 -0.000002 -0.000000 0.000003 1.777560 -11.827274 -9.453285 1.762679 -2.960310 20.651842 1.681428 -2.762158 9.417823 -0.000002 0.000000 0.000001 2.612847 -21.378200 -4.080147 5.314408 -1.204972 0.000055 7.953929 -5.178062 14.067361 -0.000001 -0.000001 -0.000001 -76.973561 -18.897470 33.540279 67.815726 -1.593857 6.829847 7.079089 -0.372079 -0.047611 0.031764 -0.007722 0.000011 -0.000000 -0.000001 0.000002 -100.827731 -67.343097 34.237740 113.864683 -10.218858 -30.428202 23.137363 0.409260 29.764469 0.004145 0.000172 -0.000331 0.000000 -0.000000 -0.000001 
0.458430 122.718880 15.047710 3.654701 -35.903183 3.961456 31.645547 -6.348397 -10.057090 14.124494 0.962688 -3.082690 0.000000 0.000000 0.000000 14.081433 0.915141 -3.297780 -8.636851 21.467476 -12.828428 -25.291748 13.718659 5.212690 0.000000 0.000000 0.000000 11.372209 -16.443322 3.967055 0.000000 0.000000 0.000000 -62.208065 -4.571391 -3.790342 45.710467 -23.896284 29.381230 -13.152803 31.668329 18.894682 40.109941 -15.297129 -0.360420 5.639824 28.097619 11.338675 1.088600 40.896748 22.734013 -0.000000 0.000002 0.000000 6.882240 2.840058 -61.140404 8.247930 7.639982 -89.897946 2.146326 8.173660 -41.827768 0.000003 -0.000001 0.000000 -2.345508 4.688853 -62.655320 8.754109 9.897115 -87.051109 1.995381 4.929272 -37.483310 0.000001 -0.000002 -0.000001 -9.042533 10.045660 -60.766328 8.524079 9.508808 -66.893076 6.576506 9.896714 -70.384983 -0.000002 -0.000000 0.000002 -17.946954 14.754943 -51.485812 8.868418 8.667047 -84.811968 4.540347 8.852508 -59.153017 -0.000001 -0.000001 -0.000002 18.029167 24.259182 -9.213509 0.000000 0.000000 0.000000 -32.985548 6.584516 2.975904 -41.769776 39.073668 29.004692 -2.558814 7.327773 -19.065153 -1.525700 -5.490530 13.054243 1.517234 -22.702492 -8.022586 -6.615009 18.786676 8.531369 0.000000 0.000000 0.000003 1.264160 4.823521 -8.200521 0.528597 0.186456 7.355377 0.908700 -0.830011 -14.364491 0.000001 -0.000001 0.000001 0.874206 -5.218024 -11.333224 1.587296 -3.878978 22.059947 1.505054 3.329499 -13.916549 0.000000 0.000000 -0.000001 1.813556 -11.822569 -9.179915 1.792576 -3.024128 21.110293 1.691540 -2.800339 9.683764 0.000001 -0.000000 0.000001 2.626222 -21.407365 -3.836566 5.351738 -1.276963 0.651230 7.972228 -5.183695 14.309047 0.000001 -0.000001 0.000002 -77.000418 -18.891788 33.525546 67.810610 -1.641235 6.803835 7.125783 -0.250556 -0.135086 0.026810 -0.007761 0.000015 -0.000002 0.000001 -0.000000 -100.872803 -67.256101 33.919068 113.795507 -10.037122 -30.338259 22.992606 0.392634 29.601606 0.004718 0.000152 -0.000354 -0.000000 -0.000000 0.000001 
0.456459 122.694878 15.017286 3.679677 -35.991528 4.020389 31.637528 -6.366364 -10.065929 14.121968 0.959986 -3.082248 0.000000 0.000000 0.000000 14.068810 0.912811 -3.297122 -8.610288 21.493205 -12.821317 -25.195723 13.750095 5.199518 0.000001 0.000001 0.000001 11.267124 -16.494261 3.552181 0.000000 0.000000 0.000000 -61.836387 -4.277149 -3.867883 45.655307 -23.778494 29.256675 -13.315557 31.475083 18.907552 40.109931 -15.297131 -0.360422 5.639824 28.097616 11.338676 1.088600 40.896748 22.734017 -0.000000 -0.000000 0.000000 6.882237 2.840055 -61.140397 8.247932 7.639985 -89.897946 2.146325 8.173658 -41.827764 -0.000004 0.000000 -0.000001 -2.345510 4.688855 -62.655320 8.754117 9.897111 -87.051109 1.995377 4.929277 -37.483303 0.000004 -0.000002 -0.000002 -9.042531 10.045660 -60.766322 8.524078 9.508810 -66.893076 6.576504 9.896711 -70.384983 -0.000002 0.000000 0.000001 -17.946954 14.754943 -51.485812 8.868420 8.667050 -84.811962 4.540347 8.852510 -59.153017 0.000000 -0.000003 -0.000002 17.871453 24.380041 -8.840630 0.000000 0.000000 0.000000 -32.509665 6.730316 2.966663 -41.608078 38.845164 28.745701 -2.194461 7.735468 -18.572673 -1.525700 -5.490529 13.054243 1.517234 -22.702490 -8.022592 -6.615008 18.786676 8.531374 -0.000001 -0.000002 -0.000003 1.252742 4.791383 -7.959529 0.537558 0.056540 8.312886 0.255122 -0.418520 -13.711299 -0.000001 -0.000003 -0.000001 0.884688 -5.264785 -11.020555 1.631339 -3.983813 22.846003 1.491529 3.285906 -13.603664 -0.000000 0.000003 0.000001 1.849487 -11.817703 -8.906593 1.822946 -3.087673 21.568785 1.701860 -2.838471 9.949698 -0.000000 0.000002 0.000002 2.639510 -21.436441 -3.593005 5.390296 -1.348508 1.586687 7.990588 -5.189241 14.550764 0.000001 0.000001 0.000002 -77.017206 -18.865915 33.500572 67.797277 -1.653485 6.796309 7.084268 -0.163266 -0.171289 0.022393 -0.007748 0.000031 -0.000001 0.000001 -0.000002 -100.853474 -67.175313 33.645034 113.724391 -9.842071 -30.254610 22.817951 0.368470 29.427187 0.005014 0.000198 -0.000319 -0.000000 -0.000000 0.000001 
0.458850 122.667618 14.989777 3.705649 -36.057354 4.078568 31.623933 -6.383786 -10.072838 14.106486 0.954763 -3.080997 0.000000 0.000000 0.000000 14.049167 0.908811 -3.295744 -8.563405 21.515700 -12.819788 -25.070495 13.794750 5.150474 0.000000 0.000000 -0.000000 11.178846 -16.526059 3.162660 0.000000 0.000000 0.000000 -61.569449 -3.861256 -3.799273 45.619725 -23.701721 29.176939 -13.445429 31.206376 18.883639 40.109938 -15.297129 -0.360422 5.639823 28.097616 11.338675 1.088601 40.896748 22.734015 -0.000000 -0.000002 0.000000 6.882242 2.840061 -61.140404 8.247936 7.639984 -89.897946 2.146332 8.173657 -41.827768 0.000003 0.000000 -0.000003 -2.345509 4.688859 -62.655320 8.754106 9.897110 -87.051102 1.995382 4.929274 -37.483310 -0.000000 -0.000004 -0.000004 -9.042534 10.045665 -60.766328 8.524070 9.508813 -66.893070 6.576505 9.896715 -70.384990 0.000002 -0.000001 0.000001 -17.946954 14.754947 -51.485816 8.868418 8.667043 -84.811968 4.540347 8.852512 -59.153024 -0.000000 0.000001 0.000000 17.715217 24.468461 -8.495871 0.000000 0.000000 0.000000 -32.128865 6.751247 2.910643 -41.451417 38.621390 28.494036 -1.622675 7.766568 -18.155254 -1.525702 -5.490529 13.054245 1.517234 -22.702485 -8.022593 -6.615007 18.786679 8.531371 0.000002 0.000001 -0.000001 1.241615 4.759406 -7.720704 0.548547 -0.072029 9.261827 -0.403528 -0.026201 -13.055856 0.000001 -0.000002 -0.000003 0.895324 -5.311148 -10.710621 1.676467 -4.087029 23.625245 1.478307 3.242657 -13.293597 -0.000001 0.000002 0.000001 1.885090 -11.812664 -8.635664 1.853578 -3.150460 22.023194 1.712228 -2.876271 10.213288 -0.000000 0.000001 -0.000001 2.652740 -21.465174 -3.351520 5.429579 -1.418822 2.513891 8.008834 -5.194682 14.790279 -0.000000 -0.000001 -0.000001 -77.026543 -18.854083 33.484815 67.763564 -1.660062 6.793113 7.099004 -0.115193 -0.249978 0.025246 -0.007690 -0.000002 -0.000000 -0.000000 0.000001 -100.868807 -67.064589 33.318677 113.647019 -9.660347 -30.162491 22.646107 0.348213 29.295832 0.005139 0.000155 -0.000356 -0.000000 -0.000000 -0.000001 
0.460481 122.640671 14.958563 3.732678 -36.126868 4.139218 31.607213 -6.399565 -10.076188 14.084154 0.946270 -3.078783 0.000000 0.000000 0.000000 14.024752 0.902257 -3.293459 -8.559995 21.556439 -12.797782 -24.976460 13.886568 5.176313 0.000002 0.000000 -0.000001 11.087244 -16.530098 2.819700 0.000000 0.000000 0.000000 -61.258840 -3.422806 -3.756273 45.583532 -23.623782 29.096162 -13.538102 30.843714 18.809796 40.109934 -15.297131 -0.360423 5.639822 28.097614 11.338677 1.088603 40.896741 22.734020 0.000001 0.000000 -0.000000 6.882239 2.840061 -61.140404 8.247932 7.639979 -89.897946 2.146330 8.173658 -41.827764 -0.000006 -0.000003 -0.000005 -2.345508 4.688860 -62.655320 8.754108 9.897116 -87.051102 1.995379 4.929275 -37.483310 -0.000000 0.000000 -0.000001 -9.042534 10.045667 -60.766322 8.524072 9.508809 -66.893070 6.576501 9.896711 -70.384976 0.000001 -0.000001 -0.000003 -17.946952 14.754949 -51.485812 8.868421 8.667046 -84.811968 4.540348 8.852505 -59.153017 0.000001 0.000001 -0.000002 17.522809 24.569661 -8.065064 0.000000 0.000000 0.000000 -31.766578 6.787543 2.888678 -41.306286 38.411768 28.260107 -1.098192 7.921630 -17.721035 -1.525701 -5.490528 13.054244 1.517235 -22.702488 -8.022598 -6.615007 18.786676 8.531372 -0.000001 0.000001 0.000002 1.230788 4.727993 -7.486136 0.561464 -0.198112 10.193775 -1.060617 0.343679 -12.404691 0.000001 -0.000001 0.000000 0.906028 -5.356580 -10.406174 1.722099 -4.187851 24.390558 1.465546 3.200102 -12.989117 0.000000 0.000000 -0.000001 1.920049 -11.807672 -8.369625 1.884134 -3.211823 22.469560 1.722589 -2.913314 10.472113 -0.000000 0.000002 0.000004 2.665666 -21.493362 -3.114395 5.469326 -1.487197 3.424504 8.026744 -5.199949 15.025557 0.000002 -0.000002 -0.000002 -77.024719 -18.819861 33.458768 67.719256 -1.673301 6.785896 7.066768 -0.050935 -0.324552 0.013817 -0.007791 -0.000005 -0.000000 0.000000 -0.000002 -100.818551 -66.973222 33.060697 113.570289 -9.469028 -30.077834 22.478289 0.322536 29.131696 0.005032 0.000164 -0.000350 -0.000000 -0.000000 0.000002 
